<svg xmlns="http://www.w3.org/2000/svg" width="246" height="240" viewBox="0 0 246 240">
<g>
<path d="M 101.80 224.66 C101.08,225.11 91.72,225.57 81.00,225.68 C59.23,225.90 45.06,224.27 41.56,221.15 C40.43,220.15 37.93,218.70 36.01,217.94 C30.80,215.88 25.21,210.33 22.55,204.59 C21.25,201.79 19.15,197.25 17.88,194.50 L 15.58 189.50 L 15.19 131.36 C14.74,66.21 15.59,46.20 19.13,38.29 C20.31,35.65 21.95,32.15 22.77,30.50 C24.67,26.72 31.00,20.00 32.67,20.00 C33.36,20.00 35.41,18.72 37.22,17.16 C40.88,13.98 42.10,13.56 53.50,11.54 C60.02,10.38 73.97,10.19 129.00,10.46 C188.89,10.77 196.95,10.99 200.50,12.45 C215.01,18.43 220.71,23.38 226.32,34.92 L 230.50 43.50 L 230.78 114.50 C231.04,181.86 230.95,185.86 229.13,192.50 C226.05,203.74 224.44,207.21 221.63,208.69 C220.18,209.44 219.00,210.70 219.00,211.49 C219.00,212.97 210.48,220.00 208.68,220.00 C208.12,220.00 204.70,221.21 201.08,222.68 C194.55,225.35 194.31,225.37 168.80,225.43 C148.98,225.48 142.81,225.20 141.80,224.20 C140.78,223.18 140.50,215.42 140.50,188.37 C140.50,185.23 140.49,182.36 140.49,179.72 C140.44,160.38 140.42,153.86 143.44,151.80 C144.98,150.75 147.30,150.86 150.80,151.02 C151.74,151.06 152.76,151.11 153.88,151.14 C161.68,151.34 163.46,151.10 164.48,149.70 C165.78,147.92 168.50,134.27 169.43,124.87 C170.22,116.92 169.49,116.50 154.90,116.50 C146.57,116.50 142.73,116.12 141.81,115.20 C140.92,114.32 140.50,110.93 140.50,104.61 C140.50,95.97 140.70,95.04 143.43,91.09 C147.27,85.56 150.31,84.11 159.72,83.35 C165.18,82.91 168.00,82.82 169.46,81.37 C171.02,79.81 171.01,76.69 171.00,69.88 C171.00,69.31 171.00,68.71 171.00,68.09 C171.00,66.95 171.01,65.89 171.01,64.91 C171.05,59.20 171.07,56.09 169.54,54.32 C167.44,51.90 162.42,52.00 150.50,51.41 C140.37,50.91 137.31,51.14 130.84,52.84 C126.63,53.95 121.93,55.90 120.40,57.18 C113.19,63.18 108.17,69.61 106.87,74.50 C106.28,76.70 105.33,79.62 104.75,81.00 C104.17,82.38 103.49,90.03 103.23,98.00 C102.97,105.97 102.35,113.29 101.85,114.25 C101.05,115.76 99.37,116.00 89.52,116.00 C81.99,116.00 77.88,116.39 77.41,117.15 C76.33,118.89 76.26,148.31 77.32,149.75 C77.97,150.63 81.76,151.00 90.02,151.00 C98.88,151.00 101.91,151.33 102.30,152.33 C102.58,153.06 102.87,169.44 102.95,188.74 C103.06,216.49 102.82,224.00 101.80,224.66 Z" fill="rgb(1,127,253)"/>
<path d="M 101.80 224.66 C102.82,224.00 103.06,216.49 102.95,188.74 C102.87,169.44 102.58,153.06 102.30,152.33 C101.91,151.33 98.88,151.00 90.02,151.00 C81.76,151.00 77.97,150.63 77.32,149.75 C76.26,148.31 76.33,118.89 77.41,117.15 C77.88,116.39 81.99,116.00 89.52,116.00 C99.37,116.00 101.05,115.76 101.85,114.25 C102.35,113.29 102.97,105.97 103.23,98.00 C103.49,90.03 104.17,82.38 104.75,81.00 C105.33,79.62 106.28,76.70 106.87,74.50 C108.17,69.61 113.19,63.18 120.40,57.18 C121.93,55.90 126.63,53.95 130.84,52.84 C137.31,51.14 140.37,50.91 150.50,51.41 C162.42,52.00 167.44,51.90 169.54,54.32 C171.07,56.09 171.05,59.20 171.01,64.91 C171.01,65.89 171.00,66.95 171.00,68.09 C171.00,68.71 171.00,69.31 171.00,69.88 C171.01,76.69 171.02,79.81 169.46,81.37 C168.00,82.82 165.18,82.91 159.72,83.35 C150.31,84.11 147.27,85.56 143.43,91.09 C140.70,95.04 140.50,95.97 140.50,104.61 C140.50,110.93 140.92,114.32 141.81,115.20 C142.73,116.12 146.57,116.50 154.90,116.50 C169.49,116.50 170.22,116.92 169.43,124.87 C168.50,134.27 165.78,147.92 164.48,149.70 C163.46,151.10 161.68,151.34 153.88,151.14 C152.76,151.11 151.74,151.06 150.80,151.02 C147.30,150.86 144.98,150.75 143.44,151.80 C140.42,153.86 140.44,160.38 140.49,179.72 C140.49,182.36 140.50,185.23 140.50,188.37 C140.50,215.42 140.78,223.18 141.80,224.20 C142.81,225.20 148.98,225.48 168.80,225.43 C194.31,225.37 194.55,225.35 201.08,222.68 C204.70,221.21 208.12,220.00 208.68,220.00 C210.48,220.00 219.00,212.97 219.00,211.49 C219.00,210.70 220.18,209.44 221.63,208.69 C224.44,207.21 226.05,203.74 229.13,192.50 C230.95,185.86 231.04,181.86 230.78,114.50 L 230.50 43.50 L 226.32 34.92 C220.71,23.38 215.01,18.43 200.50,12.45 C196.95,10.99 188.89,10.77 129.00,10.46 C73.97,10.19 60.02,10.38 53.50,11.54 C42.10,13.56 40.88,13.98 37.22,17.16 C35.41,18.72 33.36,20.00 32.67,20.00 C31.00,20.00 24.67,26.72 22.77,30.50 C21.95,32.15 20.31,35.65 19.13,38.29 C15.59,46.20 14.74,66.21 15.19,131.36 L 15.58 188.27 C15.07,179.93 15.02,162.59 14.96,119.38 C14.88,69.89 15.19,45.98 15.96,42.62 C18.57,31.14 24.97,22.27 35.49,15.56 C44.90,9.55 43.19,9.68 119.78,9.27 C120.90,9.26 122.01,9.26 123.10,9.25 C189.10,8.89 202.43,8.82 211.79,14.88 C214.32,16.51 216.55,18.59 219.46,21.23 C224.96,26.24 228.75,32.84 231.44,42.11 C232.88,47.11 233.03,55.66 232.78,120.11 L 232.50 192.50 L 230.02 198.84 C226.89,206.84 220.03,215.43 212.97,220.19 C203.83,226.36 196.97,227.42 166.00,227.46 L 139.50 227.50 L 139.24 188.78 L 138.98 150.06 L 151.24 149.78 L 163.50 149.50 L 165.66 138.00 C166.85,131.68 167.86,124.60 167.91,122.28 L 168.00 118.05 L 139.50 117.50 L 139.50 105.00 C139.51,93.38 139.68,92.24 141.96,88.86 C145.45,83.70 149.14,82.14 159.64,81.39 L 168.78 80.73 L 169.19 75.11 C169.41,72.01 169.41,66.27 169.19,62.35 L 168.79 55.21 L 160.81 53.97 C143.88,51.34 127.51,54.33 119.22,61.59 C108.98,70.54 106.10,78.85 105.28,101.75 L 104.70 118.00 L 77.95 118.00 L 78.22 133.75 L 78.50 149.50 L 91.76 149.78 L 105.02 150.06 L 104.76 188.78 L 104.50 227.50 L 83.00 227.60 C58.82,227.71 57.26,227.61 47.54,225.32 C38.92,223.29 34.99,221.11 28.19,214.59 C21.77,208.43 19.79,205.36 17.12,197.38 C16.44,195.35 15.98,193.73 15.67,189.69 L 17.88 194.50 C19.15,197.25 21.25,201.79 22.55,204.59 C25.21,210.33 30.80,215.88 36.01,217.94 C37.93,218.70 40.43,220.15 41.56,221.15 C45.06,224.27 59.23,225.90 81.00,225.68 C91.72,225.57 101.08,225.11 101.80,224.66 Z" fill="rgb(25,126,224)"/>
<path d="M 0.00 120.00 L 0.00 0.00 L 123.00 0.00 L 246.00 0.00 L 246.00 120.00 L 246.00 240.00 L 123.00 240.00 L 0.00 240.00 L 0.00 120.00 ZM 104.76 188.78 L 105.02 150.06 L 91.76 149.78 L 78.50 149.50 L 78.22 133.75 L 77.95 118.00 L 91.33 118.00 L 104.70 118.00 L 105.28 101.75 C106.10,78.85 108.98,70.54 119.22,61.59 C127.51,54.33 143.88,51.34 160.81,53.97 L 168.79 55.21 L 169.19 62.35 C169.41,66.27 169.41,72.01 169.19,75.11 L 168.78 80.73 L 159.64 81.39 C149.14,82.14 145.45,83.70 141.96,88.86 C139.68,92.24 139.51,93.38 139.50,105.00 L 139.50 117.50 L 153.75 117.78 L 168.00 118.05 L 167.91 122.28 C167.86,124.60 166.85,131.68 165.66,138.00 L 163.50 149.50 L 151.24 149.78 L 138.98 150.06 L 139.24 188.78 L 139.50 227.50 L 166.00 227.46 C196.97,227.42 203.83,226.36 212.97,220.19 C220.03,215.43 226.89,206.84 230.02,198.84 L 232.50 192.50 L 232.78 120.11 C233.03,55.66 232.88,47.11 231.44,42.11 C228.75,32.84 224.96,26.24 219.46,21.23 C205.61,8.64 206.93,8.80 119.78,9.27 C43.19,9.68 44.90,9.55 35.49,15.56 C24.97,22.27 18.57,31.14 15.96,42.62 C15.19,45.98 14.88,69.89 14.96,119.38 C15.06,189.06 15.13,191.45 17.12,197.38 C19.79,205.36 21.77,208.43 28.19,214.59 C34.99,221.11 38.92,223.29 47.54,225.32 C57.26,227.61 58.82,227.71 83.00,227.60 L 104.50 227.50 L 104.76 188.78 Z" fill="rgb(251,253,253)"/>
</g>
</svg>