<svg xmlns="http://www.w3.org/2000/svg" width="636" height="393" viewBox="0 0 636 393">
<g>
<path d="M 236.00 137.57 C236.00,137.80 233.64,138.00 230.75,138.00 L 225.50 138.00 L 219.40 127.25 C214.56,118.70 197.28,88.56 179.72,58.00 C175.45,50.56 173.00,45.12 173.00,43.06 C173.00,37.30 178.71,32.00 184.90,32.00 C189.43,32.00 192.28,33.70 194.61,37.80 C195.77,39.83 200.69,48.25 205.53,56.50 C210.38,64.75 218.65,79.04 223.92,88.25 C229.19,97.46 234.51,106.69 235.75,108.75 C236.98,110.81 238.89,114.35 239.99,116.62 C242.39,121.60 244.21,123.24 246.37,122.41 C247.27,122.07 248.00,121.62 248.00,121.41 C248.00,121.10 237.44,102.52 230.99,91.50 C230.03,89.85 225.65,82.20 221.26,74.50 C216.87,66.80 209.81,54.52 205.57,47.21 C197.08,32.58 195.95,28.93 198.41,24.17 C201.12,18.93 209.01,16.33 214.04,19.02 C216.37,20.27 222.01,28.51 228.59,40.30 C231.29,45.14 234.40,50.63 235.50,52.51 C236.60,54.38 243.31,66.17 250.42,78.71 C251.18,80.06 251.92,81.36 252.62,82.60 C265.40,105.15 267.63,109.10 269.37,108.89 C269.84,108.83 270.27,108.48 270.85,108.11 C271.90,107.45 269.90,103.23 261.94,89.38 C240.86,52.66 232.57,38.24 227.23,29.00 C223.26,22.13 221.70,18.39 221.62,15.50 C221.37,6.94 230.23,1.41 238.30,5.09 C240.89,6.27 242.30,8.47 255.59,32.00 C260.40,40.53 265.10,48.62 266.03,50.00 C266.95,51.38 268.84,54.53 270.21,57.00 C276.99,69.21 286.53,85.88 288.53,89.00 C289.76,90.93 294.87,99.75 299.88,108.61 C308.04,123.04 309.00,125.26 309.00,129.78 C309.00,137.26 308.49,138.00 303.32,138.00 L 298.86 138.00 L 299.43 132.75 C299.45,132.50 299.48,132.26 299.51,132.03 C299.63,130.89 299.73,130.02 299.69,129.15 C299.55,126.20 297.78,123.32 290.00,109.95 C280.34,93.34 278.25,89.69 269.60,74.44 C265.26,66.77 258.91,55.78 255.50,50.00 C252.09,44.22 246.91,35.22 244.00,30.00 C234.28,12.61 233.43,11.57 231.18,14.28 C230.40,15.22 231.15,17.26 234.02,22.03 C236.16,25.59 238.60,29.99 239.43,31.81 C240.26,33.63 241.81,36.33 242.86,37.81 C243.91,39.29 253.39,55.57 263.93,73.99 C277.36,97.46 283.00,108.23 282.79,109.99 C282.41,113.26 269.15,121.52 265.71,120.62 C264.21,120.23 261.62,116.77 257.61,109.77 C254.38,104.12 247.11,91.40 241.45,81.50 C214.96,35.09 210.40,27.50 209.00,27.50 C205.97,27.50 207.01,31.33 212.58,40.78 C215.73,46.12 221.89,56.80 226.26,64.50 C230.63,72.20 235.06,79.85 236.09,81.50 C237.13,83.15 238.42,85.40 238.96,86.50 C239.50,87.60 241.19,90.60 242.72,93.18 C251.30,107.62 259.00,122.16 259.00,123.94 C259.00,126.99 244.50,135.62 241.19,134.55 C240.26,134.25 238.44,132.09 237.14,129.75 C235.84,127.41 233.76,123.93 232.51,122.00 C230.41,118.77 219.50,99.70 196.30,58.75 C186.86,42.10 184.68,39.32 183.04,41.94 C182.00,43.62 182.73,45.17 191.52,60.00 C194.95,65.78 202.35,78.60 207.97,88.50 C225.77,119.87 230.08,127.38 233.08,132.32 C234.68,134.97 236.00,137.33 236.00,137.57 ZM 273.42 236.60 C271.58,237.37 267.46,238.00 264.28,238.00 C257.03,238.00 247.72,233.79 243.84,228.77 C238.30,221.61 235.94,207.10 238.34,195.00 C240.37,184.77 241.14,183.10 245.87,178.50 C251.10,173.43 254.67,172.17 264.08,172.08 C270.28,172.01 272.56,172.45 276.58,174.50 C279.29,175.87 281.60,176.99 281.72,177.00 C281.84,177.00 282.07,170.81 282.22,163.25 L 282.50 149.50 L 306.00 148.94 L 306.00 237.00 L 287.04 237.00 L 286.43 234.25 C285.64,230.74 285.33,229.09 284.60,228.87 C283.98,228.68 283.05,229.52 281.28,231.12 C281.13,231.26 280.97,231.41 280.81,231.55 C278.59,233.56 275.27,235.83 273.42,236.60 ZM 129.00 234.83 C124.51,236.88 121.67,237.40 113.50,237.62 C100.49,237.99 93.70,236.07 85.96,229.85 C79.67,224.79 76.78,218.18 76.23,207.53 C75.39,191.47 80.27,181.23 91.47,175.56 C96.41,173.06 98.64,172.60 107.70,172.20 C128.91,171.25 139.70,176.61 145.01,190.73 C146.85,195.61 147.12,198.04 146.79,206.50 C146.45,214.87 145.96,217.33 143.74,221.62 C140.60,227.71 136.46,231.42 129.00,234.83 ZM 211.46 233.97 C205.07,237.16 203.68,237.47 194.50,237.67 C183.53,237.92 181.15,237.49 173.00,233.77 C167.17,231.11 163.78,227.94 160.00,221.63 C158.13,218.50 157.59,215.87 157.21,207.93 C156.63,195.96 157.91,190.31 162.57,184.21 C169.25,175.45 177.60,172.00 192.11,172.00 C203.52,172.00 209.48,173.46 216.07,177.88 C223.76,183.05 227.07,189.80 227.75,201.73 C228.69,218.19 223.83,227.80 211.46,233.97 ZM 423.00 384.74 C419.42,385.97 414.70,386.94 412.50,386.90 C403.67,386.72 392.01,381.10 386.84,374.53 C385.71,373.08 382.52,367.99 379.75,363.20 C344.63,302.47 317.09,254.39 316.43,252.67 C315.88,251.25 316.53,251.00 320.87,251.00 L 325.95 251.00 L 330.22 258.60 C336.11,269.07 338.35,272.97 340.58,276.69 C341.64,278.44 345.03,284.29 348.13,289.69 C351.22,295.08 358.59,307.83 364.50,318.00 C370.41,328.17 376.13,338.06 377.22,339.96 C395.58,372.06 396.90,373.75 405.88,376.46 C411.90,378.29 419.00,377.98 419.00,375.90 C419.00,375.34 414.11,366.47 408.14,356.19 C402.16,345.91 395.61,334.58 393.58,331.00 C391.54,327.42 386.94,319.55 383.35,313.50 C379.76,307.45 375.81,300.70 374.56,298.50 C373.32,296.30 366.84,284.97 360.15,273.33 C353.47,261.69 348.00,251.88 348.00,251.53 C348.00,251.18 350.33,251.03 353.17,251.20 C358.76,251.52 359.15,251.89 364.05,261.50 C365.18,263.70 368.78,270.00 372.07,275.50 C375.36,281.00 379.40,287.98 381.06,291.00 C382.71,294.02 387.35,302.12 391.37,309.00 C400.76,325.06 421.85,361.60 423.98,365.50 C424.88,367.15 426.62,370.08 427.83,372.00 C429.27,374.27 429.95,376.73 429.77,379.00 C429.51,382.35 429.22,382.60 423.00,384.74 ZM 442.18 131.96 C438.28,137.73 435.98,138.83 429.22,138.18 L 425.94 137.87 L 429.13 133.84 C446.80,111.53 454.02,86.88 452.80,53.03 C452.29,38.88 450.58,33.60 444.63,27.85 C434.88,18.40 421.95,18.94 404.50,29.52 C362.29,55.10 344.15,83.96 344.03,125.75 L 344.00 138.00 L 335.14 138.00 L 334.44 132.39 C333.60,125.64 334.56,112.25 336.63,102.00 C341.28,78.89 354.06,57.04 372.50,40.66 C385.55,29.07 405.61,17.20 418.52,13.45 C429.97,10.12 441.73,13.02 450.84,21.42 C459.31,29.23 462.00,38.66 462.00,60.61 C462.00,90.20 456.13,111.34 442.18,131.96 ZM 239.20 386.10 C233.27,388.43 217.67,384.57 215.72,380.29 C214.60,377.82 215.36,375.83 221.35,365.50 C222.63,363.30 229.87,350.70 237.44,337.50 C245.02,324.30 251.56,313.05 251.99,312.50 C252.42,311.95 255.67,306.33 259.22,300.00 C262.77,293.67 266.76,286.65 268.09,284.39 C269.41,282.13 274.26,273.69 278.85,265.64 L 287.21 251.00 L 292.60 251.00 C295.57,251.00 298.00,251.23 298.00,251.52 C298.00,251.81 296.79,253.94 295.31,256.27 C293.83,258.60 290.97,263.42 288.96,267.00 C286.95,270.58 283.73,276.20 281.82,279.50 C270.41,299.15 250.40,333.74 242.48,347.50 C237.42,356.30 231.65,366.19 229.66,369.47 C227.55,372.96 226.42,375.82 226.94,376.34 C227.43,376.83 229.81,377.45 232.23,377.72 C235.76,378.12 237.79,377.63 242.56,375.21 C248.36,372.27 251.29,369.68 253.68,365.37 C256.12,360.99 275.33,327.40 276.89,324.81 C277.77,323.33 282.33,315.50 287.00,307.40 C291.67,299.31 296.18,291.52 297.01,290.09 C297.84,288.67 301.41,282.43 304.94,276.22 C309.59,268.06 312.01,264.79 313.69,264.36 C316.55,263.65 319.01,265.51 318.98,268.37 C318.97,270.46 313.07,281.01 279.90,338.29 C277.92,341.70 272.63,351.02 268.14,359.00 C258.94,375.34 252.83,382.16 245.71,384.07 C243.40,384.69 240.47,385.61 239.20,386.10 ZM 186.40 220.57 C190.57,222.39 194.51,222.33 198.59,220.39 C203.08,218.26 204.31,213.97 203.86,202.09 C203.52,193.38 203.33,192.68 200.69,190.41 C198.50,188.53 196.74,188.00 192.67,188.00 C183.60,188.00 180.00,192.68 180.00,204.45 C180.00,212.98 182.31,218.79 186.40,220.57 ZM 105.23 220.30 C110.38,222.95 116.84,221.96 120.13,218.01 C125.81,211.21 125.34,194.77 119.33,190.05 C115.46,187.00 107.05,187.19 103.31,190.41 C100.67,192.68 100.48,193.38 100.14,202.09 C99.69,213.77 100.90,218.07 105.23,220.30 ZM 264.53 217.63 C266.40,219.49 267.98,220.00 271.87,220.00 C276.12,220.00 277.17,219.58 279.29,217.07 C284.22,211.21 283.60,195.19 278.28,191.01 C273.95,187.60 265.88,188.76 263.11,193.19 C259.75,198.58 260.63,213.72 264.53,217.63 ZM 389.50 61.31 C384.55,66.08 380.26,69.98 379.97,69.99 C378.23,70.03 375.00,66.53 375.00,64.62 C375.00,59.95 397.16,41.05 408.50,36.05 C415.32,33.04 423.13,32.24 424.89,34.37 C426.95,36.86 425.48,40.86 422.23,41.57 C410.17,44.24 402.34,48.96 389.50,61.31 Z" fill="rgb(35,30,33)"/>
<path d="M 236.00 137.57 C236.00,137.33 234.68,134.97 233.08,132.32 C230.23,127.63 226.21,120.63 210.60,93.13 C211.29,93.95 211.71,93.72 212.77,92.66 C214.12,91.31 214.03,90.52 211.14,84.91 C224.30,108.06 230.93,119.56 232.51,122.00 C233.76,123.93 235.84,127.41 237.14,129.75 C238.44,132.09 240.26,134.25 241.19,134.55 C244.50,135.62 259.00,126.99 259.00,123.94 C259.00,122.16 251.30,107.62 242.72,93.18 C241.19,90.60 239.50,87.60 238.96,86.50 C238.42,85.40 237.13,83.15 236.09,81.50 C235.20,80.09 231.83,74.27 228.13,67.79 C232.40,74.99 234.49,76.50 235.64,73.50 C235.89,72.85 234.56,69.71 232.41,65.67 C235.10,70.37 238.10,75.62 241.45,81.50 C247.11,91.40 254.38,104.12 257.61,109.77 C261.62,116.77 264.21,120.23 265.71,120.62 C269.15,121.52 282.41,113.26 282.79,109.99 C283.00,108.23 277.36,97.46 263.93,73.99 C253.39,55.57 243.91,39.29 242.86,37.81 C241.81,36.33 240.26,33.63 239.43,31.81 C238.60,29.99 236.16,25.59 234.02,22.03 C231.42,17.70 230.56,15.63 231.01,14.57 C230.56,15.63 231.42,17.70 234.04,22.03 C236.19,25.59 238.26,29.17 238.62,30.00 C238.99,30.83 243.34,38.36 248.28,46.75 C253.22,55.14 257.39,62.00 257.55,62.00 C258.71,62.00 261.00,60.63 261.00,59.93 C261.00,59.70 260.44,58.56 259.53,56.89 C262.78,62.49 266.65,69.23 269.60,74.44 C278.25,89.69 280.34,93.34 290.00,109.95 C297.78,123.32 299.55,126.20 299.69,129.15 C299.73,130.02 299.63,130.89 299.51,132.03 L 299.51 132.03 C299.48,132.26 299.45,132.50 299.43,132.75 L 298.86 138.00 L 303.32 138.00 C308.49,138.00 309.00,137.26 309.00,129.78 C309.00,125.26 308.04,123.04 299.88,108.61 C294.87,99.75 289.76,90.93 288.53,89.00 C286.53,85.88 276.99,69.21 270.21,57.00 C269.92,56.48 269.61,55.93 269.29,55.38 L 270.21 56.88 L 276.86 54.48 C286.81,50.89 301.73,48.73 316.50,48.73 C330.26,48.74 350.65,51.24 355.25,53.50 C357.71,54.70 358.10,54.69 365.22,47.71 C350.70,63.07 340.64,82.07 336.63,102.00 C334.56,112.25 333.60,125.64 334.44,132.39 L 335.14 138.00 L 344.00 138.00 L 344.03 125.75 C344.11,98.29 351.97,76.42 369.33,57.38 L 372.77 59.14 L 376.37 60.98 L 379.37 58.09 C376.69,60.96 375.00,63.33 375.00,64.62 C375.00,66.53 378.23,70.03 379.97,69.99 C380.18,69.98 382.50,67.92 385.65,64.97 L 390.42 67.51 C405.96,75.77 426.11,93.59 436.50,108.26 C438.70,111.36 440.82,113.93 441.21,113.95 C441.45,113.97 441.70,113.84 441.98,113.54 C438.55,120.62 434.28,127.33 429.13,133.84 L 425.94 137.87 L 429.22 138.18 C429.39,138.20 429.55,138.22 429.72,138.23 C416.23,138.35 366.37,138.37 307.64,138.25 L 182.79 137.99 L 183.46 135.25 C184.45,131.26 192.40,117.63 198.62,109.28 C201.58,105.31 204.00,101.70 204.00,101.25 C204.00,100.75 197.58,89.19 188.51,73.30 C202.75,98.10 215.38,120.14 219.40,127.25 L 225.50 138.00 L 230.75 138.00 C233.64,138.00 236.00,137.80 236.00,137.57 ZM 590.37 234.96 C585.35,236.84 582.65,237.00 555.63,237.00 C539.52,237.00 526.03,236.70 525.67,236.33 C525.30,235.97 525.00,217.29 525.00,194.83 L 525.00 154.00 L 555.26 154.00 C571.90,154.00 587.04,154.44 588.90,154.97 C594.20,156.49 598.68,160.07 600.93,164.58 C603.66,170.05 603.71,178.70 601.03,183.95 C598.95,188.02 594.67,192.00 592.37,192.00 C589.93,192.00 591.01,193.44 595.74,196.50 C601.88,200.48 603.92,203.49 604.65,209.67 C606.15,222.34 601.34,230.86 590.37,234.96 ZM 297.88 251.85 C304.01,251.84 310.16,251.83 316.28,251.82 C316.23,252.04 316.29,252.32 316.43,252.67 C317.08,254.38 344.07,301.49 378.67,361.34 C376.87,358.32 374.79,354.75 372.33,350.50 C368.19,343.35 364.61,337.30 364.38,337.06 C364.14,336.82 360.93,337.59 357.23,338.78 C347.60,341.87 331.28,344.11 318.29,344.13 C307.13,344.15 285.04,341.58 281.80,339.88 C280.50,339.19 279.11,340.19 275.75,345.55 C277.54,342.41 279.04,339.78 279.90,338.29 C313.07,281.01 318.97,270.46 318.98,268.37 C319.01,265.51 316.55,263.65 313.69,264.36 C312.01,264.79 309.59,268.06 304.94,276.22 C301.41,282.43 297.84,288.67 297.01,290.09 C296.18,291.52 291.67,299.31 287.00,307.40 C282.33,315.50 277.77,323.33 276.89,324.81 C275.59,326.98 261.89,350.90 256.05,361.18 C257.53,358.53 259.43,355.17 261.50,351.59 C266.17,343.49 270.00,336.67 270.00,336.43 C270.00,336.19 269.51,336.00 268.92,336.00 C268.32,336.00 264.69,334.62 260.85,332.93 C255.63,330.64 253.53,330.14 252.54,330.96 C252.03,331.39 250.18,334.26 247.92,338.07 C257.44,321.58 272.50,295.55 281.82,279.50 C283.73,276.20 286.95,270.58 288.96,267.00 C290.97,263.42 293.83,258.60 295.31,256.27 C296.52,254.37 297.55,252.60 297.88,251.85 ZM 486.00 234.97 C481.44,236.89 478.37,237.33 468.00,237.58 C461.12,237.75 453.92,237.52 452.00,237.07 C443.13,235.02 434.07,229.19 429.74,222.77 C424.54,215.05 424.00,211.14 424.00,181.32 L 424.00 154.00 L 451.00 154.00 L 451.00 181.25 C451.01,206.47 451.15,208.74 452.95,211.69 C457.95,219.89 471.06,220.72 476.80,213.20 L 479.50 209.66 L 480.50 154.50 L 493.82 154.22 L 507.14 153.94 L 506.82 183.22 L 506.50 212.50 L 503.40 219.06 C499.85,226.57 494.64,231.33 486.00,234.97 ZM 235.91 340.18 C240.85,331.41 244.00,325.58 244.00,325.09 C244.00,324.54 242.54,323.39 240.75,322.54 C230.53,317.65 205.48,294.51 198.42,283.44 C197.39,281.82 196.24,280.27 195.87,280.00 C193.66,278.36 180.37,253.29 181.25,252.42 C181.45,252.22 231.65,252.00 286.70,251.88 L 278.85 265.64 C274.26,273.69 269.41,282.13 268.09,284.39 C266.76,286.65 262.77,293.67 259.22,300.00 C255.67,306.33 252.42,311.95 251.99,312.50 C251.56,313.05 245.02,324.30 237.44,337.50 C236.93,338.40 236.42,339.29 235.91,340.18 ZM 357.14 251.78 C377.77,251.77 395.97,251.79 408.75,251.83 C445.18,251.97 454.00,252.25 454.00,253.30 C454.00,254.96 446.99,268.90 442.75,275.69 C433.78,290.02 418.44,306.32 404.89,315.91 L 398.27 320.59 L 410.31 341.54 C416.12,351.66 421.57,361.21 423.43,364.50 C419.44,357.43 400.21,324.13 391.37,309.00 C387.35,302.12 382.71,294.02 381.06,291.00 C379.40,287.98 375.36,281.00 372.07,275.50 C368.78,270.00 365.18,263.70 364.05,261.50 C360.66,254.85 359.43,252.63 357.14,251.78 ZM 326.40 251.81 C333.78,251.80 341.05,251.79 348.10,251.79 C348.87,253.44 353.99,262.61 360.15,273.33 C366.84,284.97 373.32,296.30 374.56,298.50 C375.81,300.70 379.76,307.45 383.35,313.50 C386.07,318.08 389.37,323.71 391.69,327.73 L 390.01 325.05 L 385.16 327.91 C380.15,330.86 376.06,332.54 374.75,332.20 C373.04,331.75 373.57,333.48 379.96,344.75 C379.09,343.23 378.18,341.63 377.22,339.96 C376.13,338.06 370.41,328.17 364.50,318.00 C358.59,307.83 351.22,295.08 348.13,289.69 C345.03,284.29 341.64,278.44 340.58,276.69 C338.35,272.97 336.11,269.07 330.22,258.60 ZM 553.75 217.37 C557.15,218.38 574.89,217.33 576.46,216.03 C578.23,214.56 578.53,207.87 576.96,204.93 C576.03,203.19 574.77,203.00 563.96,203.00 L 552.00 203.00 L 552.00 209.93 C552.00,215.66 552.30,216.94 553.75,217.37 ZM 552.00 172.00 L 552.00 186.00 L 562.43 186.00 C570.58,186.00 573.20,185.66 574.43,184.43 C576.30,182.56 576.55,174.95 574.80,173.20 C574.01,172.41 569.87,172.00 562.80,172.00 ZM 235.50 52.51 C234.40,50.63 231.29,45.14 228.59,40.30 C231.29,45.14 234.40,50.59 235.50,52.42 C236.60,54.25 239.00,58.46 240.83,61.76 C243.46,66.51 244.56,67.67 246.08,67.27 C247.14,66.99 248.00,66.35 248.00,65.84 C248.00,65.50 246.42,62.48 244.10,58.31 C248.77,66.43 254.57,76.54 261.94,89.38 C269.90,103.23 271.90,107.45 270.85,108.11 C270.27,108.48 269.84,108.83 269.37,108.89 C267.63,109.10 265.40,105.15 252.62,82.60 C251.92,81.36 251.18,80.06 250.42,78.71 C243.31,66.17 236.60,54.38 235.50,52.51 ZM 198.11 43.82 C198.69,44.78 199.29,45.78 199.90,46.82 C203.97,53.80 210.46,64.90 214.31,71.50 C218.17,78.10 221.41,83.62 221.52,83.77 C221.95,84.38 225.00,82.73 225.00,81.89 C225.00,81.36 223.46,78.40 219.00,70.54 C219.80,71.95 220.56,73.28 221.26,74.50 C225.65,82.20 230.03,89.85 230.99,91.50 C237.44,102.52 248.00,121.10 248.00,121.41 C248.00,121.62 247.27,122.07 246.37,122.41 C244.21,123.24 242.39,121.60 239.99,116.62 C238.89,114.35 236.98,110.81 235.75,108.75 C234.51,106.69 229.19,97.46 223.92,88.25 C218.65,79.04 210.38,64.75 205.53,56.50 C202.87,51.96 200.18,47.37 198.11,43.82 ZM 442.18 131.96 C444.04,129.22 445.75,126.46 447.33,123.68 C447.14,124.78 447.73,125.94 449.25,128.79 C449.38,129.04 449.52,129.29 449.65,129.53 C451.92,133.77 453.06,135.90 452.43,136.95 C451.79,138.01 449.35,137.98 444.47,137.92 C444.20,137.92 443.92,137.92 443.62,137.91 C440.37,137.88 437.35,137.91 435.42,137.98 C438.00,137.28 439.79,135.50 442.18,131.96 ZM 205.39 74.79 C204.35,73.28 200.08,65.88 195.51,57.66 C192.23,51.77 189.06,46.48 187.10,43.59 C189.03,46.17 191.86,50.92 196.30,58.75 C199.57,64.53 202.60,69.87 205.39,74.79 ZM 457.17 100.17 C460.49,88.47 462.00,75.63 462.00,60.61 C462.00,75.76 460.69,87.73 457.96,97.50 C457.73,98.35 457.46,99.25 457.17,100.17 ZM 386.41 51.40 C392.50,45.86 398.42,41.50 403.96,38.43 C398.50,41.65 391.92,46.60 386.41,51.40 ZM 403.55 375.71 C399.83,374.36 397.33,372.58 393.34,366.89 C396.87,371.69 399.85,374.16 403.55,375.71 ZM 182.93 42.15 C182.69,43.42 183.35,45.68 184.92,48.48 C186.12,50.60 187.76,53.52 189.65,56.83 C182.94,45.46 182.14,43.64 182.93,42.15 ZM 397.79 338.33 C400.70,343.37 404.52,349.97 408.14,356.19 C410.77,360.71 413.18,364.96 415.07,368.35 C413.29,365.18 411.04,361.25 408.59,357.07 C404.20,349.55 399.96,342.19 397.79,338.33 ZM 266.02 49.99 C265.07,48.57 260.39,40.50 255.59,32.00 C251.36,24.51 248.33,19.18 246.09,15.35 C248.23,19.00 251.10,24.03 255.05,31.00 C259.09,38.12 263.72,46.13 266.02,49.99 ZM 261.99 369.18 C256.12,378.27 251.28,382.58 245.65,384.09 C245.05,384.25 244.41,384.43 243.76,384.62 C244.42,384.43 245.09,384.24 245.71,384.07 C251.12,382.62 255.95,378.33 261.99,369.18 ZM 423.00 384.74 C419.42,385.97 414.99,386.98 413.15,386.99 C411.98,386.99 410.65,386.86 409.24,386.61 C410.36,386.78 411.45,386.88 412.50,386.90 C414.70,386.94 419.42,385.97 423.00,384.74 ZM 211.87 30.77 C210.35,28.68 209.24,27.62 208.48,27.55 C208.64,27.52 208.81,27.50 209.00,27.50 C209.44,27.50 210.20,28.26 211.87,30.77 ZM 234.11 361.93 C236.60,357.68 239.65,352.42 242.48,347.50 C243.18,346.30 243.96,344.94 244.82,343.44 C241.61,349.14 237.01,357.08 234.11,361.93 ZM 221.62 15.50 C221.67,17.33 222.31,19.49 223.78,22.57 C221.70,18.47 221.68,17.47 221.62,15.50 ZM 395.36 24.24 C403.58,19.30 411.75,15.42 418.52,13.45 C412.01,15.34 403.68,19.30 395.36,24.24 ZM 240.40 376.26 C237.82,377.43 236.10,377.86 234.09,377.85 C236.07,377.71 238.17,377.18 240.40,376.26 ZM 419.59 33.20 C422.68,32.95 423.97,33.25 424.89,34.37 C424.11,33.43 422.14,33.06 419.59,33.20 ZM 405.68 48.10 C410.92,44.87 416.01,42.95 422.23,41.57 C416.16,42.92 410.90,44.94 405.68,48.10 ZM 176.87 35.15 C174.53,37.21 173.00,40.07 173.00,43.06 C173.00,39.92 174.54,37.13 176.87,35.15 ZM 220.25 44.60 C222.19,47.92 224.48,51.87 227.16,56.54 C225.00,52.82 222.50,48.51 220.25,44.60 ZM 451.95 78.13 C452.83,70.36 453.12,61.93 452.80,53.03 C453.12,62.00 452.85,70.33 451.95,78.13 ZM 185.39 32.01 C187.02,32.02 188.66,32.35 190.20,33.07 C190.35,33.15 190.54,33.28 190.75,33.46 C189.25,32.53 187.51,32.07 185.39,32.01 ZM 248.70 371.39 C247.55,372.33 246.21,373.21 244.64,374.10 C246.06,373.26 247.46,372.32 248.70,371.39 ZM 210.48 55.70 C208.98,53.12 207.35,50.29 205.56,47.21 C200.51,38.49 198.06,33.67 197.43,30.19 C198.06,33.67 200.51,38.49 205.57,47.21 C206.97,49.62 208.67,52.56 210.48,55.70 ZM 446.05 103.87 C446.47,102.65 446.92,101.30 447.41,99.81 C447.50,99.55 447.58,99.29 447.67,99.03 C447.16,100.67 446.63,102.28 446.05,103.87 ZM 208.39 32.89 C208.98,34.19 209.77,35.76 210.70,37.49 C209.71,35.69 208.94,34.17 208.39,32.89 ZM 225.28 62.77 C223.55,59.74 221.63,56.38 219.75,53.12 C221.73,56.55 223.70,59.97 225.28,62.77 ZM 221.35 365.50 C219.19,369.23 217.71,371.87 216.75,373.84 C217.83,371.61 219.59,368.51 222.25,363.93 L 222.34 363.79 C221.88,364.58 221.55,365.16 221.35,365.50 ZM 234.50 41.60 C232.78,38.64 231.30,36.07 230.02,33.83 C231.31,36.07 232.78,38.61 234.50,41.60 ZM 207.71 27.94 C207.55,28.16 207.43,28.48 207.34,28.88 C207.37,28.48 207.50,28.16 207.71,27.94 ZM 250.77 41.89 C249.35,39.44 247.89,36.89 246.56,34.55 C247.87,36.85 249.33,39.39 250.77,41.89 ZM 373.01 53.53 C373.64,52.89 374.29,52.26 374.94,51.63 ZM 241.17 7.61 C239.98,6.05 239.21,5.51 238.30,5.09 C239.22,5.51 239.98,6.04 241.17,7.61 ZM 419.00 375.88 C419.00,375.88 419.00,375.89 419.00,375.90 C419.00,376.07 418.95,376.24 418.85,376.39 C418.94,376.23 418.99,376.06 419.00,375.88 ZM 393.60 380.47 C394.09,380.79 394.60,381.10 395.11,381.41 C394.59,381.10 394.08,380.79 393.60,380.47 ZM 234.45 14.21 C233.84,13.53 233.35,13.21 232.92,13.15 C233.35,13.21 233.84,13.53 234.45,14.21 Z" fill="rgb(234,92,8)"/>
<path d="M 235.91 340.18 C230.06,350.36 224.65,359.77 222.34,363.79 L 222.34 363.79 L 222.25 363.93 C221.73,364.84 221.23,365.69 220.77,366.48 C220.40,365.44 218.87,364.24 215.97,362.50 C193.45,348.97 170.05,326.15 154.54,302.61 C149.92,295.59 139.00,275.16 139.00,273.54 C139.00,273.23 138.14,271.07 137.09,268.74 C136.04,266.41 134.43,262.02 133.51,259.00 C132.59,255.98 131.68,252.96 131.47,252.30 C131.20,251.43 166.92,251.14 287.14,251.11 L 286.70 251.88 C231.65,252.00 181.45,252.22 181.25,252.42 C180.37,253.29 193.66,278.36 195.87,280.00 C196.24,280.27 197.39,281.82 198.42,283.44 C205.48,294.51 230.53,317.65 240.75,322.54 C242.54,323.39 244.00,324.54 244.00,325.09 C244.00,325.58 240.85,331.41 235.91,340.18 ZM 266.02 49.99 C263.72,46.13 259.09,38.12 255.05,31.00 C251.10,24.03 248.23,19.00 246.09,15.35 L 246.09 15.35 C245.38,14.15 244.75,13.09 244.18,12.17 C244.96,13.37 245.66,14.29 245.98,14.49 C246.47,14.79 249.90,13.89 253.60,12.50 C270.38,6.18 288.03,3.09 311.50,2.34 C342.42,1.37 368.85,6.01 392.72,16.63 C399.65,19.70 401.67,20.27 405.28,18.79 C402.04,20.39 398.70,22.23 395.36,24.24 C387.16,29.10 378.97,34.91 372.50,40.66 C369.97,42.91 367.54,45.27 365.22,47.71 C358.10,54.69 357.71,54.70 355.25,53.50 C350.65,51.24 330.26,48.74 316.50,48.73 C301.73,48.73 286.81,50.89 276.86,54.48 L 270.21 56.88 L 269.29 55.38 C268.09,53.28 266.76,51.09 266.03,50.00 ZM 502.67 137.42 C502.11,138.87 485.62,138.99 319.28,138.81 C218.75,138.69 135.71,138.43 134.75,138.23 C133.79,138.02 133.00,137.28 133.00,136.59 C133.00,131.56 141.57,112.35 150.83,96.61 C157.26,85.69 165.62,74.39 175.07,63.85 L 179.95 58.41 C182.83,63.42 185.70,68.41 188.51,73.30 C197.58,89.19 204.00,100.75 204.00,101.25 C204.00,101.70 201.58,105.31 198.62,109.28 C192.40,117.63 184.45,131.26 183.46,135.25 L 182.79 137.99 L 307.64 138.25 C366.37,138.37 416.23,138.35 429.72,138.23 C432.08,138.43 433.89,138.40 435.42,137.98 C437.35,137.91 440.37,137.88 443.62,137.91 C443.92,137.92 444.20,137.92 444.47,137.92 C449.35,137.98 451.79,138.01 452.43,136.95 C453.06,135.90 451.92,133.77 449.65,129.53 C449.52,129.29 449.38,129.04 449.25,128.79 C447.73,125.94 447.14,124.78 447.33,123.68 C451.58,116.17 454.83,108.46 457.17,100.17 C457.46,99.25 457.73,98.35 457.96,97.50 C460.69,87.73 462.00,75.76 462.00,60.61 C462.00,49.87 461.36,42.13 459.71,36.11 C461.29,41.56 462.00,48.18 462.00,56.45 L 462.00 65.23 L 466.81 70.86 C472.75,77.83 480.45,88.57 485.19,96.50 C493.82,110.93 503.84,134.38 502.67,137.42 ZM 357.14 251.78 C356.13,251.40 354.90,251.30 353.17,251.20 C350.33,251.03 348.00,251.18 348.00,251.53 C348.00,251.56 348.03,251.64 348.10,251.79 C341.05,251.79 333.78,251.80 326.40,251.81 L 326.01 251.11 C492.40,251.12 504.00,251.25 503.98,252.81 C503.87,260.19 487.13,295.60 478.59,306.50 C476.87,308.70 474.23,312.33 472.72,314.56 C469.42,319.47 458.60,331.44 450.78,338.83 C445.71,343.63 427.82,357.86 423.55,360.50 C422.07,361.41 422.09,361.80 423.78,365.00 C424.79,366.92 426.62,370.08 427.83,372.00 C426.62,370.08 424.88,367.15 423.98,365.50 C423.86,365.27 423.67,364.94 423.43,364.50 L 423.42 364.49 C421.55,361.17 416.11,351.64 410.31,341.54 L 398.27 320.59 L 404.89 315.91 C418.44,306.32 433.78,290.02 442.75,275.69 C446.99,268.90 454.00,254.96 454.00,253.30 C454.00,252.25 445.18,251.97 408.75,251.83 C395.97,251.79 377.77,251.77 357.14,251.78 ZM 261.99 369.18 C263.90,366.29 265.93,362.92 268.14,359.00 C270.66,354.51 273.44,349.60 275.75,345.55 C279.11,340.19 280.50,339.19 281.80,339.88 C285.04,341.58 307.13,344.15 318.29,344.13 C331.28,344.11 347.60,341.87 357.23,338.78 C360.93,337.59 364.14,336.82 364.38,337.06 C364.61,337.30 368.19,343.35 372.33,350.50 C374.79,354.75 376.87,358.32 378.67,361.34 L 379.75 363.20 C382.52,367.99 385.71,373.08 386.84,374.53 C387.70,375.62 388.75,376.69 389.92,377.71 L 380.22 380.82 C363.49,386.17 360.22,387.01 350.23,388.59 C336.27,390.80 307.11,391.25 293.14,389.48 C282.44,388.12 258.28,382.72 255.00,380.95 C254.07,380.45 252.36,380.85 250.47,382.02 C249.90,382.37 249.23,382.72 248.47,383.07 C252.96,380.98 257.12,376.72 261.99,369.18 ZM 349.04 235.75 C349.01,236.68 345.71,237.00 336.00,237.00 L 323.00 237.00 L 323.00 153.00 L 348.95 153.00 L 349.22 168.25 L 349.50 183.50 L 379.00 184.05 L 379.00 152.94 L 405.50 153.50 L 405.50 236.50 L 392.28 236.78 L 379.05 237.06 L 378.78 221.28 L 378.50 205.50 L 349.50 205.50 L 349.29 220.00 C349.17,227.98 349.06,235.06 349.04,235.75 ZM 389.50 61.31 C395.72,55.33 400.76,51.14 405.68,48.10 C410.90,44.94 416.16,42.92 422.23,41.57 C425.48,40.86 426.95,36.86 424.89,34.37 C424.11,33.43 422.14,33.06 419.59,33.20 C416.40,33.39 412.30,34.38 408.50,36.05 C407.13,36.66 405.59,37.47 403.96,38.43 C398.42,41.50 392.50,45.86 386.41,51.40 C383.72,53.73 381.29,56.04 379.37,58.09 L 376.37 60.98 L 372.77 59.14 L 369.33 57.38 C370.51,56.08 371.74,54.80 373.01,53.53 L 373.01 53.53 L 373.11 53.42 C373.71,52.82 374.32,52.23 374.94,51.63 C383.05,43.88 392.86,36.57 404.50,29.52 C407.84,27.49 411.02,25.83 414.04,24.54 C413.77,24.72 413.58,24.88 413.48,25.03 C412.97,25.86 417.69,29.47 423.93,33.00 C429.57,36.19 450.02,52.32 450.83,54.22 C451.02,54.65 451.65,55.00 452.23,55.00 C452.52,55.00 452.71,54.62 452.83,53.97 C453.10,62.52 452.80,70.63 451.95,78.13 L 451.95 78.13 C451.10,85.53 449.68,92.46 447.67,99.03 C447.58,99.29 447.50,99.55 447.41,99.81 C446.92,101.30 446.47,102.65 446.05,103.87 C444.86,107.18 443.50,110.39 441.98,113.54 C441.70,113.84 441.45,113.97 441.21,113.95 C440.82,113.93 438.70,111.36 436.50,108.26 C426.11,93.59 405.96,75.77 390.42,67.51 L 385.65 64.97 C386.84,63.86 388.14,62.62 389.50,61.31 ZM 59.77 212.75 L 59.50 236.50 L 36.00 237.06 L 36.00 189.00 L 27.00 189.00 L 27.00 173.00 L 36.00 173.00 L 36.01 168.75 C36.02,154.66 43.06,148.07 58.12,148.02 C62.32,148.01 67.16,148.28 68.88,148.62 L 72.00 149.25 L 72.00 164.00 L 67.12 164.00 C61.53,164.00 59.70,165.50 60.18,169.69 C60.48,172.37 60.77,172.51 66.25,172.80 L 72.00 173.10 L 72.00 189.00 L 60.04 189.00 ZM 397.79 338.33 C399.96,342.19 404.20,349.55 408.59,357.07 C410.54,360.40 412.36,363.57 413.92,366.32 L 407.04 369.89 C403.22,371.87 400.42,373.82 400.82,374.22 C401.17,374.57 402.86,375.38 404.76,376.11 C404.34,375.98 403.94,375.85 403.55,375.71 C399.85,374.16 396.87,371.69 393.34,366.89 L 393.34 366.89 C390.23,362.45 386.20,355.62 379.96,344.75 C373.57,333.48 373.04,331.75 374.75,332.20 C376.06,332.54 380.15,330.86 385.16,327.91 L 390.01 325.05 L 391.69 327.73 C392.44,329.01 393.08,330.13 393.58,331.00 C394.38,332.41 395.89,335.04 397.79,338.33 ZM 234.11 361.93 C237.01,357.08 241.61,349.14 244.82,343.44 C245.77,341.80 246.80,340.00 247.92,338.07 C250.18,334.26 252.03,331.39 252.54,330.96 C253.53,330.14 255.63,330.64 260.85,332.93 C264.69,334.62 268.32,336.00 268.92,336.00 C269.51,336.00 270.00,336.19 270.00,336.43 C270.00,336.67 266.17,343.49 261.50,351.59 C259.43,355.17 257.53,358.53 256.05,361.18 C254.92,363.18 254.08,364.66 253.68,365.37 C252.33,367.80 250.81,369.69 248.70,371.39 C247.46,372.32 246.06,373.26 244.64,374.10 C243.99,374.47 243.30,374.84 242.56,375.21 C241.77,375.61 241.06,375.96 240.40,376.26 C239.72,376.54 239.05,376.78 238.40,376.99 C238.65,376.85 238.85,376.68 239.00,376.50 C240.06,375.23 239.53,374.68 235.55,372.92 C231.36,371.06 229.45,370.85 227.98,372.51 C228.43,371.60 229.00,370.57 229.66,369.47 C230.54,368.02 232.15,365.29 234.11,361.93 ZM 198.11 43.82 C197.23,42.32 196.47,41.00 195.86,39.96 C197.25,41.93 198.27,42.11 199.89,41.09 C201.04,40.36 200.92,39.46 199.14,35.79 C196.91,31.19 196.54,28.60 197.87,25.35 C197.28,26.85 197.10,28.33 197.43,30.19 C197.44,30.21 197.44,30.22 197.44,30.24 L 197.44 30.24 C198.08,33.71 200.53,38.53 205.56,47.21 C207.35,50.29 208.98,53.12 210.48,55.70 L 210.48 55.70 C213.30,60.60 216.38,65.97 219.00,70.54 C223.46,78.40 225.00,81.36 225.00,81.89 C225.00,82.73 221.95,84.38 221.52,83.77 C221.41,83.62 218.17,78.10 214.31,71.50 C210.46,64.90 203.97,53.80 199.90,46.82 C199.29,45.78 198.69,44.78 198.11,43.82 ZM 250.77 41.89 C252.46,44.81 254.13,47.67 255.50,50.00 C256.60,51.85 257.99,54.25 259.53,56.89 C260.44,58.56 261.00,59.70 261.00,59.93 C261.00,60.63 258.71,62.00 257.55,62.00 C257.39,62.00 253.22,55.14 248.28,46.75 C243.34,38.36 238.99,30.83 238.62,30.00 C238.26,29.17 236.19,25.59 234.04,22.03 C233.40,20.97 232.86,20.05 232.43,19.24 C233.58,20.20 235.11,20.22 236.71,19.20 C237.12,18.94 237.27,18.58 237.15,18.06 C238.77,20.69 240.95,24.54 244.00,30.00 C244.73,31.31 245.61,32.87 246.56,34.55 L 246.56 34.55 C246.68,34.75 246.79,34.95 246.91,35.15 C248.12,37.29 249.46,39.61 250.77,41.89 ZM 205.39 74.79 C207.43,78.39 209.35,81.76 211.14,84.91 C214.03,90.52 214.12,91.31 212.77,92.66 C211.71,93.72 211.29,93.95 210.60,93.13 C209.75,91.65 208.88,90.10 207.97,88.50 C202.35,78.60 194.95,65.78 191.52,60.00 C190.85,58.87 190.23,57.82 189.65,56.83 C187.93,53.81 186.41,51.12 185.25,49.06 C186.96,51.34 188.80,51.68 189.60,49.59 C189.81,49.04 189.69,48.13 189.36,47.11 C191.13,49.98 193.30,53.68 195.51,57.66 C200.08,65.88 204.35,73.28 205.39,74.79 ZM 220.25 44.60 C222.50,48.51 225.00,52.82 227.16,56.54 C228.76,59.32 230.51,62.36 232.41,65.67 C234.56,69.71 235.89,72.85 235.64,73.50 C234.49,76.50 232.40,74.99 228.13,67.79 C227.52,66.71 226.89,65.60 226.26,64.50 C225.94,63.94 225.61,63.36 225.28,62.77 L 225.28 62.77 C223.70,59.97 221.73,56.55 219.75,53.12 C216.98,48.31 214.32,43.73 212.58,40.78 C211.88,39.59 211.25,38.50 210.70,37.49 C209.94,36.07 209.27,34.75 208.73,33.61 C210.13,34.67 212.00,34.04 212.00,31.62 C212.00,31.37 211.98,31.12 211.95,30.88 C213.62,33.41 216.20,37.67 220.25,44.60 ZM 234.50 41.60 C237.05,46.05 240.17,51.47 244.10,58.31 C246.42,62.48 248.00,65.50 248.00,65.84 C248.00,66.35 247.14,66.99 246.08,67.27 C244.56,67.67 243.46,66.51 240.83,61.76 C239.00,58.46 236.60,54.25 235.50,52.42 C234.40,50.59 231.29,45.14 228.59,40.30 C223.77,31.67 219.46,24.94 216.59,21.47 C217.89,22.87 219.19,24.49 219.67,25.36 C220.55,26.94 221.05,27.04 222.92,26.04 C225.07,24.89 225.08,24.78 223.41,22.22 C222.24,20.44 221.65,18.02 221.62,15.63 C221.68,17.52 221.74,18.56 223.78,22.57 C224.63,24.36 225.77,26.47 227.23,29.00 C228.07,30.46 228.99,32.05 230.02,33.83 C231.30,36.07 232.78,38.64 234.50,41.60 ZM 295.88 251.11 C302.84,251.11 310.05,251.11 317.55,251.11 L 317.75 251.11 C316.78,251.22 316.36,251.43 316.28,251.82 C310.16,251.83 304.01,251.84 297.88,251.85 C297.96,251.69 298.00,251.57 298.00,251.52 C298.00,251.35 297.17,251.20 295.88,251.11 ZM 451.97 42.67 C451.42,39.70 450.68,36.91 449.88,35.25 C447.18,29.68 442.53,25.24 437.30,22.88 C439.93,24.00 442.37,25.65 444.63,27.85 C448.84,31.92 450.93,35.76 451.97,42.67 ZM 217.36 382.10 C214.68,380.24 214.70,377.99 216.50,374.00 C217.24,372.35 218.23,370.64 218.98,369.63 C218.04,371.32 217.31,372.69 216.75,373.84 C216.55,374.26 216.37,374.65 216.21,375.01 C215.04,377.71 215.09,378.91 215.72,380.29 C216.00,380.91 216.57,381.52 217.36,382.10 ZM 173.23 44.47 C173.72,46.32 174.97,49.18 176.86,52.81 C174.76,49.25 173.59,46.69 173.23,44.47 ZM 207.87 18.05 C204.03,18.54 200.21,20.78 198.45,24.09 C198.47,24.05 198.50,24.01 198.52,23.97 C200.34,20.45 204.09,18.36 207.87,18.05 ZM 235.02 4.09 C229.14,3.14 223.56,6.59 222.03,12.09 C222.34,10.85 222.83,9.72 223.50,8.82 C226.49,4.80 230.94,3.27 235.02,4.09 ZM 240.36 385.69 C241.31,385.36 242.53,384.98 243.76,384.62 L 243.77 384.62 C244.41,384.43 245.06,384.25 245.65,384.09 C246.32,383.91 246.97,383.69 247.62,383.43 C245.58,384.28 243.05,385.06 240.36,385.69 ZM 450.84 21.42 C445.87,16.84 440.12,13.90 434.06,12.71 C440.13,13.83 445.76,16.73 450.84,21.42 ZM 417.79 13.67 C414.85,14.57 411.66,15.81 408.33,17.34 C411.56,15.75 414.71,14.53 417.79,13.67 ZM 393.60 380.47 L 393.60 380.47 C393.63,380.49 393.67,380.51 393.70,380.53 C394.16,380.83 394.63,381.12 395.11,381.41 L 395.11 381.41 C396.39,382.16 397.73,382.86 399.11,383.49 C396.87,382.54 394.89,381.49 393.55,380.47 L 393.19 380.19 C393.32,380.28 393.46,380.38 393.60,380.47 ZM 176.87 35.15 C176.15,35.76 175.50,36.46 174.95,37.22 C176.15,35.35 178.02,33.91 180.17,33.03 C178.97,33.56 177.85,34.29 176.87,35.15 ZM 419.00 375.88 C418.99,376.06 418.94,376.23 418.85,376.39 C418.49,376.94 417.52,377.32 416.17,377.51 C416.36,377.47 416.56,377.42 416.75,377.37 C418.30,376.95 419.00,376.54 418.82,375.40 C418.93,375.64 418.99,375.80 419.00,375.88 ZM 425.73 21.30 C423.65,21.59 421.31,22.08 419.24,22.64 C421.50,21.96 423.66,21.51 425.73,21.30 ZM 233.78 13.56 C233.03,13.01 232.49,13.18 231.67,13.86 C231.43,14.06 231.22,14.26 231.07,14.45 C231.10,14.39 231.14,14.33 231.18,14.28 C231.80,13.54 232.31,13.08 232.92,13.15 C233.18,13.19 233.46,13.32 233.78,13.56 ZM 243.39 10.88 C242.56,9.56 241.88,8.56 241.31,7.79 C241.90,8.46 242.44,9.23 242.92,10.07 C243.07,10.35 243.23,10.62 243.39,10.88 ZM 192.09 34.50 C191.67,34.10 191.22,33.76 190.75,33.46 C190.54,33.28 190.35,33.15 190.20,33.07 C189.54,32.77 188.87,32.53 188.18,32.36 C188.88,32.52 189.57,32.76 190.23,33.06 C190.77,33.30 191.43,33.83 192.09,34.50 ZM 226.89 376.28 C227.11,376.45 227.43,376.62 227.84,376.80 C227.40,376.64 227.08,376.48 226.94,376.34 C226.92,376.32 226.90,376.30 226.89,376.28 ZM 182.93 42.15 C182.96,42.08 183.00,42.01 183.04,41.94 C183.05,41.92 183.06,41.91 183.07,41.89 C182.97,42.12 182.90,42.39 182.88,42.71 C182.88,42.50 182.89,42.32 182.93,42.15 ZM 184.30 41.09 C184.08,41.09 183.89,41.14 183.72,41.21 C183.90,41.11 184.09,41.07 184.30,41.09 ZM 233.05 386.76 C232.66,386.75 232.26,386.72 231.83,386.67 C232.24,386.71 232.65,386.74 233.05,386.76 Z" fill="rgb(242,158,82)"/>
<path d="M 0.00 196.50 L 0.00 0.00 L 318.00 0.00 L 636.00 0.00 L 636.00 196.50 L 636.00 393.00 L 318.00 393.00 L 0.00 393.00 L 0.00 196.50 ZM 350.23 388.59 C360.22,387.01 363.49,386.17 380.22,380.82 L 389.93 377.71 L 393.55 380.47 C397.66,383.60 407.77,386.99 413.00,386.98 C414.92,386.98 419.42,385.97 423.00,384.74 C429.22,382.60 429.51,382.35 429.77,379.00 C429.95,376.73 429.27,374.27 427.83,372.00 C426.62,370.08 424.79,366.92 423.78,365.00 C422.09,361.80 422.07,361.41 423.55,360.50 C427.82,357.86 445.71,343.63 450.78,338.83 C458.60,331.44 469.42,319.47 472.72,314.56 C474.23,312.33 476.87,308.70 478.59,306.50 C487.13,295.60 503.87,260.19 503.98,252.81 C504.00,251.23 492.01,251.12 317.55,251.11 C172.85,251.10 131.18,251.37 131.47,252.30 C131.68,252.96 132.59,255.98 133.51,259.00 C134.43,262.02 136.04,266.41 137.09,268.74 C138.14,271.07 139.00,273.23 139.00,273.54 C139.00,275.16 149.92,295.59 154.54,302.61 C170.05,326.15 193.45,348.97 215.97,362.50 C221.15,365.61 221.94,366.98 219.65,368.87 C218.91,369.49 217.49,371.80 216.50,374.00 C213.75,380.09 215.16,382.14 223.99,384.93 C228.47,386.34 232.55,387.01 234.84,386.70 C241.01,385.86 247.29,383.98 250.47,382.02 C252.36,380.85 254.07,380.45 255.00,380.95 C258.28,382.72 282.44,388.12 293.14,389.48 C307.11,391.25 336.27,390.80 350.23,388.59 ZM 129.00 234.83 C136.46,231.42 140.60,227.71 143.74,221.62 C145.96,217.33 146.45,214.87 146.79,206.50 C147.12,198.04 146.85,195.61 145.01,190.73 C139.70,176.61 128.91,171.25 107.70,172.20 C98.64,172.60 96.41,173.06 91.47,175.56 C80.27,181.23 75.39,191.47 76.23,207.53 C76.78,218.18 79.67,224.79 85.96,229.85 C93.70,236.07 100.49,237.99 113.50,237.62 C121.67,237.40 124.51,236.88 129.00,234.83 ZM 211.46 233.97 C223.83,227.80 228.69,218.19 227.75,201.73 C227.07,189.80 223.76,183.05 216.07,177.88 C209.48,173.46 203.52,172.00 192.11,172.00 C177.60,172.00 169.25,175.45 162.57,184.21 C157.91,190.31 156.63,195.96 157.21,207.93 C157.59,215.87 158.13,218.50 160.00,221.63 C163.78,227.94 167.17,231.11 173.00,233.77 C181.15,237.49 183.53,237.92 194.50,237.67 C203.68,237.47 205.07,237.16 211.46,233.97 ZM 273.42 236.60 C275.27,235.83 278.59,233.56 280.81,231.55 C285.16,227.63 284.93,227.51 286.43,234.25 L 287.04 237.00 L 296.52 237.00 L 306.00 237.00 L 306.00 192.97 L 306.00 148.94 L 294.25 149.22 L 282.50 149.50 L 282.22 163.25 C282.07,170.81 281.84,177.00 281.72,177.00 C281.60,176.99 279.29,175.87 276.58,174.50 C272.56,172.45 270.28,172.01 264.08,172.08 C254.67,172.17 251.10,173.43 245.87,178.50 C241.14,183.10 240.37,184.77 238.34,195.00 C235.94,207.10 238.30,221.61 243.84,228.77 C247.72,233.79 257.03,238.00 264.28,238.00 C267.46,238.00 271.58,237.37 273.42,236.60 ZM 486.00 234.97 C494.64,231.33 499.85,226.57 503.40,219.06 L 506.50 212.50 L 506.82 183.22 L 507.14 153.94 L 493.82 154.22 L 480.50 154.50 L 480.00 182.08 L 479.50 209.66 L 476.80 213.20 C471.06,220.72 457.95,219.89 452.95,211.69 C451.15,208.74 451.01,206.47 451.00,181.25 L 451.00 154.00 L 437.50 154.00 L 424.00 154.00 L 424.00 181.32 C424.00,211.14 424.54,215.05 429.74,222.77 C434.07,229.19 443.13,235.02 452.00,237.07 C453.92,237.52 461.12,237.75 468.00,237.58 C478.37,237.33 481.44,236.89 486.00,234.97 ZM 59.77 212.75 L 60.04 189.00 L 66.02 189.00 L 72.00 189.00 L 72.00 181.05 L 72.00 173.10 L 66.25 172.80 C60.77,172.51 60.48,172.37 60.18,169.69 C59.70,165.50 61.53,164.00 67.12,164.00 L 72.00 164.00 L 72.00 156.62 L 72.00 149.25 L 68.88 148.62 C67.16,148.28 62.32,148.01 58.12,148.02 C43.06,148.07 36.02,154.66 36.01,168.75 L 36.00 173.00 L 31.50 173.00 L 27.00 173.00 L 27.00 181.00 L 27.00 189.00 L 31.50 189.00 L 36.00 189.00 L 36.00 213.03 L 36.00 237.06 L 47.75 236.78 L 59.50 236.50 L 59.77 212.75 ZM 349.04 235.75 C349.06,235.06 349.17,227.98 349.29,220.00 L 349.50 205.50 L 364.00 205.50 L 378.50 205.50 L 378.78 221.28 L 379.05 237.06 L 392.28 236.78 L 405.50 236.50 L 405.50 195.00 L 405.50 153.50 L 392.25 153.22 L 379.00 152.94 L 379.00 168.50 L 379.00 184.05 L 364.25 183.78 L 349.50 183.50 L 349.22 168.25 L 348.95 153.00 L 335.97 153.00 L 323.00 153.00 L 323.00 195.00 L 323.00 237.00 L 336.00 237.00 C345.71,237.00 349.01,236.68 349.04,235.75 ZM 590.37 234.96 C601.34,230.86 606.15,222.34 604.65,209.67 C603.92,203.49 601.88,200.48 595.74,196.50 C591.01,193.44 589.93,192.00 592.37,192.00 C594.67,192.00 598.95,188.02 601.03,183.95 C603.71,178.70 603.66,170.05 600.93,164.58 C598.68,160.07 594.20,156.49 588.90,154.97 C587.04,154.44 571.90,154.00 555.26,154.00 L 525.00 154.00 L 525.00 194.83 C525.00,217.29 525.30,235.97 525.67,236.33 C526.03,236.70 539.52,237.00 555.63,237.00 C582.65,237.00 585.35,236.84 590.37,234.96 ZM 502.67 137.42 C503.84,134.38 493.82,110.93 485.19,96.50 C480.45,88.57 472.75,77.83 466.81,70.86 L 462.00 65.23 L 462.00 56.45 C462.00,38.86 458.77,28.73 450.84,21.42 C439.02,10.53 424.29,9.24 407.67,17.67 C402.27,20.40 401.02,20.31 392.72,16.63 C368.85,6.01 342.42,1.37 311.50,2.34 C288.03,3.09 270.38,6.18 253.60,12.50 C249.90,13.89 246.47,14.79 245.98,14.49 C245.49,14.19 244.12,12.20 242.92,10.07 C238.59,2.37 228.78,1.73 223.50,8.82 C221.04,12.13 220.99,18.53 223.41,22.22 C225.08,24.78 225.07,24.89 222.92,26.04 C221.05,27.04 220.55,26.94 219.67,25.36 C219.10,24.34 217.40,22.26 215.89,20.75 C211.13,15.97 201.76,17.70 198.52,23.97 C196.47,27.93 196.61,30.55 199.14,35.79 C200.92,39.46 201.04,40.36 199.89,41.09 C197.80,42.41 196.70,41.72 194.52,37.74 C193.43,35.75 191.50,33.64 190.23,33.06 C184.63,30.51 177.17,32.84 174.52,37.97 C172.02,42.79 172.66,45.99 177.79,54.35 L 180.15 58.19 L 175.07 63.85 C165.62,74.39 157.26,85.69 150.83,96.61 C141.57,112.35 133.00,131.56 133.00,136.59 C133.00,137.28 133.79,138.02 134.75,138.23 C135.71,138.43 218.75,138.69 319.28,138.81 C485.62,138.99 502.11,138.87 502.67,137.42 ZM 228.21 376.95 C226.25,376.17 226.08,375.72 227.02,373.96 C228.69,370.84 230.39,370.64 235.55,372.92 C239.53,374.68 240.06,375.23 239.00,376.50 C237.62,378.16 231.82,378.40 228.21,376.95 ZM 405.52 376.40 C403.34,375.60 401.22,374.62 400.82,374.22 C400.42,373.82 403.22,371.87 407.04,369.89 L 413.98 366.29 L 416.49 370.57 C419.57,375.83 419.60,376.61 416.75,377.37 C413.30,378.29 409.89,378.00 405.52,376.40 ZM 105.23 220.30 C100.90,218.07 99.69,213.77 100.14,202.09 C100.48,193.38 100.67,192.68 103.31,190.41 C107.05,187.19 115.46,187.00 119.33,190.05 C125.34,194.77 125.81,211.21 120.13,218.01 C116.84,221.96 110.38,222.95 105.23,220.30 ZM 186.40 220.57 C182.31,218.79 180.00,212.98 180.00,204.45 C180.00,192.68 183.60,188.00 192.67,188.00 C196.74,188.00 198.50,188.53 200.69,190.41 C203.33,192.68 203.52,193.38 203.86,202.09 C204.31,213.97 203.08,218.26 198.59,220.39 C194.51,222.33 190.57,222.39 186.40,220.57 ZM 264.53 217.63 C260.63,213.72 259.75,198.58 263.11,193.19 C265.88,188.76 273.95,187.60 278.28,191.01 C283.60,195.19 284.22,211.21 279.29,217.07 C277.17,219.58 276.12,220.00 271.87,220.00 C267.98,220.00 266.40,219.49 264.53,217.63 ZM 553.75 217.37 C552.30,216.94 552.00,215.66 552.00,209.93 L 552.00 203.00 L 563.96 203.00 C574.77,203.00 576.03,203.19 576.96,204.93 C578.53,207.87 578.23,214.56 576.46,216.03 C574.89,217.33 557.15,218.38 553.75,217.37 ZM 552.00 179.00 L 552.00 172.00 L 562.80 172.00 C569.87,172.00 574.01,172.41 574.80,173.20 C576.55,174.95 576.30,182.56 574.43,184.43 C573.20,185.66 570.58,186.00 562.43,186.00 L 552.00 186.00 L 552.00 179.00 ZM 450.83 54.22 C450.02,52.32 429.57,36.19 423.93,33.00 C417.69,29.47 412.97,25.86 413.48,25.03 C414.38,23.57 424.45,21.00 429.15,21.02 C437.36,21.06 445.82,26.87 449.88,35.25 C452.26,40.17 454.03,55.00 452.23,55.00 C451.65,55.00 451.02,54.65 450.83,54.22 ZM 184.10 47.19 C182.03,43.14 182.64,40.26 185.35,41.30 C187.37,42.08 190.30,47.78 189.60,49.59 C188.62,52.16 186.07,51.05 184.10,47.19 ZM 207.39 31.43 C207.04,30.01 207.23,28.37 207.83,27.77 C209.38,26.22 212.00,28.63 212.00,31.62 C212.00,35.04 208.26,34.88 207.39,31.43 ZM 231.22 17.58 C230.33,15.64 230.43,14.89 231.67,13.86 C233.00,12.76 233.59,13.00 235.58,15.50 C237.29,17.64 237.59,18.64 236.71,19.20 C234.45,20.64 232.32,20.01 231.22,17.58 Z" fill="rgb(254,254,253)"/>
</g>
</svg>